<svg xmlns="http://www.w3.org/2000/svg" width="24" height="24" viewBox="0 0 24 24" fill="none" stroke="currentColor" stroke-width="2" stroke-linecap="round" stroke-linejoin="round"><path d="M9.937 15.5A2 2 0 0 0 8.5 14.063l0 0a2 2 0 0 0-1.437 1.437l0 0a2 2 0 0 0 1.437 1.437l0 0a2 2 0 0 0 1.437-1.437l0 0z"/><path d="M14.5 8.5a2 2 0 0 0-1.437-1.437l0 0A2 2 0 0 0 11.63 8.5l0 0a2 2 0 0 0 1.437 1.437l0 0A2 2 0 0 0 14.5 8.5l0 0z"/><path d="M17 21a1 1 0 0 0 1-1v-5.5a1 1 0 0 0-1-1l0 0a1 1 0 0 0-1 1V20a1 1 0 0 0 1 1l0 0z"/><path d="M6 12a1 1 0 0 1-1-1V9.5a1 1 0 0 1 1-1l0 0a1 1 0 0 1 1 1V11a1 1 0 0 1-1 1l0 0z"/></svg>